mtllib box.mtl
v 0.168593627929688 0.015 -0.168181625366211
vt 0 0
vn 0 0 1
v -0.141406372070313 0.015 -0.168181625366211
vt 0.310000002384186 0
vn 0 0 1
v -0.141406372070313 -0.045 -0.168181625366211
vt 0.310000002384186 0.0599999986588955
vn 0 0 1
v 0.168593627929688 -0.045 -0.168181625366211
vt 0 0.0599999986588955
vn 0 0 1
v -0.141406372070313 0.015 -0.168181625366211
vt 0 0
vn 1 0 0
v -0.141406372070313 0.015 0.141818374633789
vt 0.310000002384186 0
vn 1 0 0
v -0.141406372070313 -0.045 0.141818374633789
vt 0.310000002384186 0.0599999986588955
vn 1 0 0
v -0.141406372070313 -0.045 -0.168181625366211
vt 0 0.0599999986588955
vn 1 0 0
v -0.146406372070313 -0.045 0.146818374633789
vt 0.319999992847443 0.0900000035762787
vn -1 0 0
v -0.146406372070313 0.045 0.146818374633789
vt 0.319999992847443 0
vn -1 0 0
v -0.146406372070313 0.045 -0.173181625366211
vt 0 0
vn -1 0 0
v -0.146406372070313 -0.045 -0.173181625366211
vt 0 0.0900000035762787
vn -1 0 0
v 0.173593627929687 -0.045 0.146818374633789
vt 0.319999992847443 0.0900000035762787
vn 0 0 1
v 0.173593627929687 0.045 0.146818374633789
vt 0.319999992847443 0
vn 0 0 1
v -0.146406372070313 0.045 0.146818374633789
vt 0 0
vn 0 0 1
v -0.146406372070313 -0.045 0.146818374633789
vt 0 0.0900000035762787
vn 0 0 1
v 0.173593627929687 -0.045 -0.173181625366211
vt 0.319999992847443 0.0900000035762787
vn 1 0 0
v 0.173593627929687 0.045 -0.173181625366211
vt 0.319999992847443 0
vn 1 0 0
v 0.173593627929687 0.045 0.146818374633789
vt 0 0
vn 1 0 0
v 0.173593627929687 -0.045 0.146818374633789
vt 0 0.0900000035762787
vn 1 0 0
v -0.146406372070313 -0.045 -0.173181625366211
vt 0.319999992847443 0.0900000035762787
vn 0 0 -1
v -0.146406372070313 0.045 -0.173181625366211
vt 0.319999992847443 0
vn 0 0 -1
v 0.173593627929687 0.045 -0.173181625366211
vt 0 0
vn 0 0 -1
v 0.173593627929687 -0.045 -0.173181625366211
vt 0 0.0900000035762787
vn 0 0 -1
v 0.168593627929688 -0.045 -0.168181625366211
vt 0.00499999988824129 0.00499999988824129
vn 0 -1 0
v -0.141406372070313 -0.045 -0.168181625366211
vt 0.314999997615814 0.00499999988824129
vn 0 -1 0
v -0.141406372070313 -0.045 0.141818374633789
vt 0.314999997615814 0.314999997615814
vn 0 -1 0
v 0.168593627929688 -0.045 0.141818374633789
vt 0.00499999988824129 0.314999997615814
vn 0 -1 0
v -0.146406372070313 -0.045 -0.173181625366211
vt 0.319999992847443 0
vn 0 -1 0
v 0.173593627929687 -0.045 -0.173181625366211
vt 0 0
vn 0 -1 0
v 0.173593627929687 -0.045 0.146818374633789
vt 0 0.319999992847443
vn 0 -1 0
v -0.146406372070313 -0.045 0.146818374633789
vt 0.319999992847443 0.319999992847443
vn 0 -1 0
v 0.168593627929688 0.015 0.141818374633789
vt 0 0
vn -1 0 0
v 0.168593627929688 0.015 -0.168181625366211
vt 0.310000002384186 0
vn -1 0 0
v 0.168593627929688 -0.045 -0.168181625366211
vt 0.310000002384186 0.0599999986588955
vn -1 0 0
v 0.168593627929688 -0.045 0.141818374633789
vt 0 0.0599999986588955
vn -1 0 0
v -0.141406372070313 0.015 0.141818374633789
vt 0 0
vn 0 0 -1
v 0.168593627929688 0.015 0.141818374633789
vt 0.310000002384186 0
vn 0 0 -1
v 0.168593627929688 -0.045 0.141818374633789
vt 0.310000002384186 0.0599999986588955
vn 0 0 -1
v -0.141406372070313 -0.045 0.141818374633789
vt 0 0.0599999986588955
vn 0 0 -1
v -0.146406372070313 0.045 -0.173181625366211
vt 0 0
vn 0 1 0
v -0.146406372070313 0.045 0.146818374633789
vt 0 0.319999992847443
vn 0 1 0
v 0.173593627929687 0.045 0.146818374633789
vt 0.319999992847443 0.319999992847443
vn 0 1 0
v 0.173593627929687 0.045 -0.173181625366211
vt 0.319999992847443 0
vn 0 1 0
v -0.141406372070313 0.015 -0.168181625366211
vt 0 0
vn 0 -1 0
v 0.168593627929688 0.015 -0.168181625366211
vt 0.310000002384186 0
vn 0 -1 0
v 0.168593627929688 0.015 0.141818374633789
vt 0.310000002384186 0.310000002384186
vn 0 -1 0
v -0.141406372070313 0.015 0.141818374633789
vt 0 0.310000002384186
vn 0 -1 0
usemtl Mat0
f 1/1/1 2/2/2 4/4/4
f 4/4/4 2/2/2 3/3/3
f 5/5/5 6/6/6 8/8/8
f 8/8/8 6/6/6 7/7/7
f 10/10/10 11/11/11 9/9/9
f 9/9/9 11/11/11 12/12/12
f 14/14/14 15/15/15 13/13/13
f 13/13/13 15/15/15 16/16/16
f 18/18/18 19/19/19 17/17/17
f 17/17/17 19/19/19 20/20/20
f 22/22/22 23/23/23 21/21/21
f 21/21/21 23/23/23 24/24/24
f 32/32/32 29/29/29 26/26/26
f 27/27/27 32/32/32 26/26/26
f 27/27/27 28/28/28 32/32/32
f 32/32/32 28/28/28 31/31/31
f 31/31/31 28/28/28 25/25/25
f 30/30/30 25/25/25 26/26/26
f 29/29/29 30/30/30 26/26/26
f 30/30/30 31/31/31 25/25/25
f 33/33/33 34/34/34 36/36/36
f 36/36/36 34/34/34 35/35/35
f 37/37/37 38/38/38 40/40/40
f 40/40/40 38/38/38 39/39/39
f 42/42/42 43/43/43 41/41/41
f 41/41/41 43/43/43 44/44/44
f 45/45/45 46/46/46 48/48/48
f 48/48/48 46/46/46 47/47/47
