mtllib box_cover.mtl
v -0.141406372070313 -0.035 -0.168181625366211
vt 0 0.00999999977648258
vn 0 0 -1
v 0.168593627929688 -0.035 -0.168181625366211
vt 0.310000002384186 0.00999999977648258
vn 0 0 -1
v 0.168593627929688 -0.045 -0.168181625366211
vt 0.310000002384186 0
vn 0 0 -1
v -0.141406372070313 -0.045 -0.168181625366211
vt 0 0
vn 0 0 -1
v -0.141406372070313 -0.035 0.141818374633789
vt 0 0.00999999977648258
vn -1 0 0
v -0.141406372070313 -0.035 -0.168181625366211
vt 0.310000002384186 0.00999999977648258
vn -1 0 0
v -0.141406372070313 -0.045 -0.168181625366211
vt 0.310000002384186 0
vn -1 0 0
v -0.141406372070313 -0.045 0.141818374633789
vt 0 0
vn -1 0 0
v 0.168593627929688 -0.035 0.141818374633789
vt 0 0.00999999977648258
vn 0 0 1
v -0.141406372070313 -0.035 0.141818374633789
vt 0.310000002384186 0.00999999977648258
vn 0 0 1
v -0.141406372070313 -0.045 0.141818374633789
vt 0.310000002384186 0
vn 0 0 1
v 0.168593627929688 -0.045 0.141818374633789
vt 0 0
vn 0 0 1
v 0.168593627929688 -0.035 -0.168181625366211
vt 0 0.00999999977648258
vn 1 0 0
v 0.168593627929688 -0.035 0.141818374633789
vt 0.310000002384186 0.00999999977648258
vn 1 0 0
v 0.168593627929688 -0.045 0.141818374633789
vt 0.310000002384186 0
vn 1 0 0
v 0.168593627929688 -0.045 -0.168181625366211
vt 0 0
vn 1 0 0
v 0.168593627929688 -0.045 -0.168181625366211
vt 0 0
vn 0 -1 0
v 0.168593627929688 -0.045 0.141818374633789
vt 0 0.310000002384186
vn 0 -1 0
v -0.141406372070313 -0.045 0.141818374633789
vt 0.310000002384186 0.310000002384186
vn 0 -1 0
v -0.141406372070313 -0.045 -0.168181625366211
vt 0.310000002384186 0
vn 0 -1 0
v 0.168593627929688 -0.035 0.141818374633789
vt 0.310000002384186 0.310000002384186
vn 0 1 0
v 0.168593627929688 -0.035 -0.168181625366211
vt 0.310000002384186 0
vn 0 1 0
v -0.141406372070313 -0.035 -0.168181625366211
vt 0 0
vn 0 1 0
v -0.141406372070313 -0.035 0.141818374633789
vt 0 0.310000002384186
vn 0 1 0
usemtl Mat0
f 1/1/1 2/2/2 4/4/4
f 4/4/4 2/2/2 3/3/3
f 5/5/5 6/6/6 8/8/8
f 8/8/8 6/6/6 7/7/7
f 9/9/9 10/10/10 12/12/12
f 12/12/12 10/10/10 11/11/11
f 13/13/13 14/14/14 16/16/16
f 16/16/16 14/14/14 15/15/15
f 18/18/18 19/19/19 17/17/17
f 17/17/17 19/19/19 20/20/20
f 22/22/22 23/23/23 21/21/21
f 21/21/21 23/23/23 24/24/24
