mtllib colorblock.mtl
v -0.108694923400879 -6.72464810073416E-17 -0.135123733520508
vt 2.6223286396601E-17 1
vn -1 -2.08166367130964E-16 1.66533400754214E-16
v -0.108694923400879 -1.06581410364015E-16 0.0148762722015381
vt 1 1
vn -1 -2.08166367130964E-16 1.66533400754214E-16
v -0.108694923400879 0.015 0.0148762722015381
vt 1 0
vn -1 -2.08166367130964E-16 1.66533400754214E-16
v -0.108694923400879 0.015 -0.135123733520508
vt 0 0
vn -1 -2.08166367130964E-16 1.66533400754214E-16
v -0.0336949234008789 -5.16340036048682E-17 -0.135123733520508
vt 4.16332707792148E-17 1
vn -1.66533400754214E-16 2.6223285073112E-16 -1
v -0.108694923400879 -6.72464810073416E-17 -0.135123733520508
vt 1 1
vn -1.66533400754214E-16 2.6223285073112E-16 -1
v -0.108694923400879 0.015 -0.135123733520508
vt 1 0
vn -1.66533400754214E-16 2.6223285073112E-16 -1
v -0.0336949234008789 0.015 -0.135123733520508
vt 0 0
vn -1.66533400754214E-16 2.6223285073112E-16 -1
v -0.0336949234008789 -9.09689329615417E-17 0.0148762722015381
vt 0 1
vn 1 2.08166367130964E-16 -1.66533400754214E-16
v -0.0336949234008789 -5.16340036048682E-17 -0.135123733520508
vt 1 1
vn 1 2.08166367130964E-16 -1.66533400754214E-16
v -0.0336949234008789 0.015 -0.135123733520508
vt 1 0
vn 1 2.08166367130964E-16 -1.66533400754214E-16
v -0.0336949234008789 0.015 0.0148762722015381
vt 3.09363915413123E-18 0
vn 1 2.08166367130964E-16 -1.66533400754214E-16
v -0.108694923400879 -1.06581410364015E-16 0.0148762722015381
vt 0 1
vn 1.66533400754214E-16 -2.6223285073112E-16 1
v -0.0336949234008789 -9.09689329615417E-17 0.0148762722015381
vt 1 1
vn 1.66533400754214E-16 -2.6223285073112E-16 1
v -0.0336949234008789 0.015 0.0148762722015381
vt 1 0
vn 1.66533400754214E-16 -2.6223285073112E-16 1
v -0.108694923400879 0.015 0.0148762722015381
vt 4.16332707792148E-17 0
vn 1.66533400754214E-16 -2.6223285073112E-16 1
v -0.108694923400879 0.015 0.0148762722015381
vt 0 1
vn -2.08166367130964E-16 1 2.6223285073112E-16
v -0.0336949234008789 0.015 0.0148762722015381
vt 1 1
vn -2.08166367130964E-16 1 2.6223285073112E-16
v -0.0336949234008789 0.015 -0.135123733520508
vt 1 0
vn -2.08166367130964E-16 1 2.6223285073112E-16
v -0.108694923400879 0.015 -0.135123733520508
vt 0 0
vn -2.08166367130964E-16 1 2.6223285073112E-16
v -0.0336949234008789 -9.09689329615417E-17 0.0148762722015381
vt 1 1
vn 2.08166367130964E-16 -1 -2.6223285073112E-16
v -0.108694923400879 -1.06581410364015E-16 0.0148762722015381
vt 0 1
vn 2.08166367130964E-16 -1 -2.6223285073112E-16
v -0.108694923400879 -6.72464810073416E-17 -0.135123733520508
vt 0 0
vn 2.08166367130964E-16 -1 -2.6223285073112E-16
v -0.0336949234008789 -5.16340036048682E-17 -0.135123733520508
vt 1 0
vn 2.08166367130964E-16 -1 -2.6223285073112E-16
usemtl Mat0
f 1/1/1 2/2/2 4/4/4
f 4/4/4 2/2/2 3/3/3
f 5/5/5 6/6/6 8/8/8
f 8/8/8 6/6/6 7/7/7
f 9/9/9 10/10/10 12/12/12
f 12/12/12 10/10/10 11/11/11
f 13/13/13 14/14/14 16/16/16
f 16/16/16 14/14/14 15/15/15
f 17/17/17 18/18/18 20/20/20
f 20/20/20 18/18/18 19/19/19
f 21/21/21 22/22/22 24/24/24
f 24/24/24 22/22/22 23/23/23
